<?xml version="1.0" encoding="UTF-8" standalone="no"?>
<!DOCTYPE svg PUBLIC "-//W3C//DTD SVG 1.1//EN"
 "http://www.w3.org/Graphics/SVG/1.1/DTD/svg11.dtd">
<!-- Generated by graphviz version 2.43.0 (0)
 -->
<!-- Title: Root Pages: 1 -->
<svg width="1535pt" height="762pt"
 viewBox="0.00 0.00 1534.67 761.53" xmlns="http://www.w3.org/2000/svg" xmlns:xlink="http://www.w3.org/1999/xlink">
<g id="graph0" class="graph" transform="scale(1 1) rotate(0) translate(4 757.53)">
<title>Root</title>
<polygon fill="white" stroke="transparent" points="-4,4 -4,-757.53 1530.67,-757.53 1530.67,4 -4,4"/>
<!-- Account -->
<g id="node1" class="node">
<title>Account</title>
<ellipse fill="none" stroke="black" cx="607.81" cy="-228.62" rx="40.09" ry="18"/>
<text text-anchor="middle" x="607.81" y="-224.92" font-family="Times,serif" font-size="14.00">Account</text>
</g>
<!-- AccountHolder -->
<g id="node2" class="node">
<title>AccountHolder</title>
<ellipse fill="none" stroke="black" cx="475.31" cy="-313.27" rx="64.99" ry="18"/>
<text text-anchor="middle" x="475.31" y="-309.57" font-family="Times,serif" font-size="14.00">AccountHolder</text>
</g>
<!-- Account&#45;&#45;AccountHolder -->
<g id="edge1" class="edge">
<title>Account&#45;&#45;AccountHolder</title>
<path fill="none" stroke="black" d="M584.43,-243.56C561.1,-258.46 525.34,-281.3 501.18,-296.74"/>
<text text-anchor="middle" x="514.8" y="-273.95" font-family="Times,serif" font-size="14.00">hasHolder</text>
</g>
<!-- AccountServicer -->
<g id="node3" class="node">
<title>AccountServicer</title>
<ellipse fill="none" stroke="black" cx="405.22" cy="-130.52" rx="69.59" ry="18"/>
<text text-anchor="middle" x="405.22" y="-126.82" font-family="Times,serif" font-size="14.00">AccountServicer</text>
</g>
<!-- Account&#45;&#45;AccountServicer -->
<g id="edge4" class="edge">
<title>Account&#45;&#45;AccountServicer</title>
<path fill="none" stroke="black" d="M580.07,-215.18C543.12,-197.29 477.83,-165.68 438.34,-146.56"/>
<text text-anchor="middle" x="472.7" y="-184.67" font-family="Times,serif" font-size="14.00">isServicedBy</text>
</g>
<!-- DirectDebitMandate -->
<g id="node5" class="node">
<title>DirectDebitMandate</title>
<ellipse fill="none" stroke="black" cx="668.91" cy="-392.88" rx="83.39" ry="18"/>
<text text-anchor="middle" x="668.91" y="-389.18" font-family="Times,serif" font-size="14.00">DirectDebitMandate</text>
</g>
<!-- Account&#45;&#45;DirectDebitMandate -->
<g id="edge2" class="edge">
<title>Account&#45;&#45;DirectDebitMandate</title>
<path fill="none" stroke="black" d="M614.47,-246.51C626.19,-278.02 650.39,-343.08 662.17,-374.76"/>
<text text-anchor="middle" x="600.32" y="-314.43" font-family="Times,serif" font-size="14.00">hostsMandate</text>
</g>
<!-- StandingOrder -->
<g id="node6" class="node">
<title>StandingOrder</title>
<ellipse fill="none" stroke="black" cx="770.88" cy="-315.12" rx="62.29" ry="18"/>
<text text-anchor="middle" x="770.88" y="-311.42" font-family="Times,serif" font-size="14.00">StandingOrder</text>
</g>
<!-- Account&#45;&#45;StandingOrder -->
<g id="edge3" class="edge">
<title>Account&#45;&#45;StandingOrder</title>
<path fill="none" stroke="black" d="M634.01,-242.52C663.18,-257.99 710.24,-282.95 740.87,-299.2"/>
<text text-anchor="middle" x="664.44" y="-274.66" font-family="Times,serif" font-size="14.00">hostsSO</text>
</g>
<!-- Party -->
<g id="node17" class="node">
<title>Party</title>
<ellipse fill="none" stroke="black" cx="474.51" cy="-463.92" rx="29.5" ry="18"/>
<text text-anchor="middle" x="474.51" y="-460.22" font-family="Times,serif" font-size="14.00">Party</text>
</g>
<!-- AccountHolder&#45;&#45;Party -->
<g id="edge34" class="edge">
<title>AccountHolder&#45;&#45;Party</title>
<path fill="none" stroke="black" d="M475.21,-331.44C475.06,-360.4 474.76,-416.69 474.61,-445.68"/>
<text text-anchor="middle" x="429.41" y="-392.36" font-family="Times,serif" font-size="14.00">IsSubClassOf(4)</text>
</g>
<!-- FinancialInstitution -->
<g id="node15" class="node">
<title>FinancialInstitution</title>
<ellipse fill="none" stroke="black" cx="219.51" cy="-171.59" rx="79.09" ry="18"/>
<text text-anchor="middle" x="219.51" y="-167.89" font-family="Times,serif" font-size="14.00">FinancialInstitution</text>
</g>
<!-- AccountServicer&#45;&#45;FinancialInstitution -->
<g id="edge35" class="edge">
<title>AccountServicer&#45;&#45;FinancialInstitution</title>
<path fill="none" stroke="black" d="M352,-142.29C328.42,-147.51 300.64,-153.65 276.63,-158.96"/>
<text text-anchor="middle" x="268.82" y="-139.43" font-family="Times,serif" font-size="14.00">IsSubClassOf(5)</text>
</g>
<!-- CashEntry -->
<g id="node4" class="node">
<title>CashEntry</title>
<ellipse fill="none" stroke="black" cx="797.79" cy="-213.67" rx="48.19" ry="18"/>
<text text-anchor="middle" x="797.79" y="-209.97" font-family="Times,serif" font-size="14.00">CashEntry</text>
</g>
<!-- CashEntry&#45;&#45;Account -->
<g id="edge5" class="edge">
<title>CashEntry&#45;&#45;Account</title>
<path fill="none" stroke="black" d="M750.34,-217.4C718.69,-219.89 677.55,-223.13 647.61,-225.48"/>
<text text-anchor="middle" x="712.73" y="-210.24" font-family="Times,serif" font-size="14.00">appliedTo</text>
</g>
<!-- DirectDebitMandate&#45;&#45;Party -->
<g id="edge36" class="edge">
<title>DirectDebitMandate&#45;&#45;Party</title>
<path fill="none" stroke="black" d="M626.25,-408.47C587.57,-422.6 531.87,-442.96 499.82,-454.67"/>
<text text-anchor="middle" x="520.53" y="-420.37" font-family="Times,serif" font-size="14.00">authorisedParty</text>
</g>
<!-- Channel -->
<g id="node7" class="node">
<title>Channel</title>
<ellipse fill="none" stroke="black" cx="1379.49" cy="-493.24" rx="40.09" ry="18"/>
<text text-anchor="middle" x="1379.49" y="-489.54" font-family="Times,serif" font-size="14.00">Channel</text>
</g>
<!-- Interface -->
<g id="node8" class="node">
<title>Interface</title>
<ellipse fill="none" stroke="black" cx="1216.82" cy="-390.09" rx="42.49" ry="18"/>
<text text-anchor="middle" x="1216.82" y="-386.39" font-family="Times,serif" font-size="14.00">Interface</text>
</g>
<!-- Channel&#45;&#45;Interface -->
<g id="edge6" class="edge">
<title>Channel&#45;&#45;Interface</title>
<path fill="none" stroke="black" d="M1362.32,-476.92C1334.85,-456.34 1280.84,-421.86 1246.88,-403"/>
<text text-anchor="middle" x="1259.1" y="-428.76" font-family="Times,serif" font-size="14.00">IsSubClassOf(7)</text>
</g>
<!-- Channel&#45;&#45;Interface -->
<g id="edge8" class="edge">
<title>Channel&#45;&#45;Interface</title>
<path fill="none" stroke="black" d="M1350.24,-480.77C1316.41,-462.06 1261.93,-427.31 1234.18,-406.55"/>
<text text-anchor="middle" x="1246.71" y="-447.46" font-family="Times,serif" font-size="14.00">IsSubClassOf(7)</text>
</g>
<!-- InterfaceMedia -->
<g id="node9" class="node">
<title>InterfaceMedia</title>
<ellipse fill="none" stroke="black" cx="1372.51" cy="-283" rx="64.99" ry="18"/>
<text text-anchor="middle" x="1372.51" y="-279.3" font-family="Times,serif" font-size="14.00">InterfaceMedia</text>
</g>
<!-- Interface&#45;&#45;InterfaceMedia -->
<g id="edge7" class="edge">
<title>Interface&#45;&#45;InterfaceMedia</title>
<path fill="none" stroke="black" d="M1245.46,-376.66C1277.66,-357.26 1328.8,-321.89 1355.36,-300.48"/>
<text text-anchor="middle" x="1270.91" y="-342.37" font-family="Times,serif" font-size="14.00">usesMedia</text>
</g>
<!-- Interface&#45;&#45;InterfaceMedia -->
<g id="edge9" class="edge">
<title>Interface&#45;&#45;InterfaceMedia</title>
<path fill="none" stroke="black" d="M1233,-373.39C1258.31,-352.85 1307.54,-318.66 1340.25,-298.63"/>
<text text-anchor="middle" x="1316.13" y="-324.81" font-family="Times,serif" font-size="14.00">usesMedia</text>
</g>
<!-- PaymentInvestigationCase -->
<g id="node10" class="node">
<title>PaymentInvestigationCase</title>
<ellipse fill="none" stroke="black" cx="1006.16" cy="-226.51" rx="104.78" ry="18"/>
<text text-anchor="middle" x="1006.16" y="-222.81" font-family="Times,serif" font-size="14.00">PaymentInvestigationCase</text>
</g>
<!-- PaymentMessage -->
<g id="node13" class="node">
<title>PaymentMessage</title>
<ellipse fill="none" stroke="black" cx="1141.25" cy="-264.33" rx="73.39" ry="18"/>
<text text-anchor="middle" x="1141.25" y="-260.63" font-family="Times,serif" font-size="14.00">PaymentMessage</text>
</g>
<!-- PaymentInvestigationCase&#45;&#45;PaymentMessage -->
<g id="edge47" class="edge">
<title>PaymentInvestigationCase&#45;&#45;PaymentMessage</title>
<path fill="none" stroke="black" d="M1061.11,-241.89C1071.63,-244.83 1082.57,-247.9 1092.86,-250.78"/>
<text text-anchor="middle" x="1035.98" y="-250.13" font-family="Times,serif" font-size="14.00">InstructedIn(3)</text>
</g>
<!-- Payment -->
<g id="node23" class="node">
<title>Payment</title>
<ellipse fill="none" stroke="black" cx="931.36" cy="-414.99" rx="42.49" ry="18"/>
<text text-anchor="middle" x="931.36" y="-411.29" font-family="Times,serif" font-size="14.00">Payment</text>
</g>
<!-- PaymentInvestigationCase&#45;&#45;Payment -->
<g id="edge48" class="edge">
<title>PaymentInvestigationCase&#45;&#45;Payment</title>
<path fill="none" stroke="black" d="M998.99,-244.58C984.69,-280.61 952.79,-360.99 938.51,-396.97"/>
<text text-anchor="middle" x="913.75" y="-309.58" font-family="Times,serif" font-size="14.00">ReferencedPayment</text>
</g>
<!-- PaymentInstructionGroup -->
<g id="node25" class="node">
<title>PaymentInstructionGroup</title>
<ellipse fill="none" stroke="black" cx="1040.16" cy="-324.92" rx="102.88" ry="18"/>
<text text-anchor="middle" x="1040.16" y="-321.22" font-family="Times,serif" font-size="14.00">PaymentInstructionGroup</text>
</g>
<!-- PaymentInvestigationCase&#45;&#45;PaymentInstructionGroup -->
<g id="edge49" class="edge">
<title>PaymentInvestigationCase&#45;&#45;PaymentInstructionGroup</title>
<path fill="none" stroke="black" d="M1012.4,-244.56C1018.49,-262.2 1027.73,-288.93 1033.85,-306.65"/>
<text text-anchor="middle" x="950.62" y="-279.4" font-family="Times,serif" font-size="14.00">ReferencedPaymentGroup</text>
</g>
<!-- MessageFunction -->
<g id="node11" class="node">
<title>MessageFunction</title>
<ellipse fill="none" stroke="black" cx="1453.23" cy="-18" rx="73.39" ry="18"/>
<text text-anchor="middle" x="1453.23" y="-14.3" font-family="Times,serif" font-size="14.00">MessageFunction</text>
</g>
<!-- MessageType -->
<g id="node12" class="node">
<title>MessageType</title>
<ellipse fill="none" stroke="black" cx="1328.38" cy="-143" rx="59.59" ry="18"/>
<text text-anchor="middle" x="1328.38" y="-139.3" font-family="Times,serif" font-size="14.00">MessageType</text>
</g>
<!-- MessageType&#45;&#45;InterfaceMedia -->
<g id="edge37" class="edge">
<title>MessageType&#45;&#45;InterfaceMedia</title>
<path fill="none" stroke="black" d="M1334.06,-161.02C1342.54,-187.9 1358.4,-238.21 1366.86,-265.05"/>
<text text-anchor="middle" x="1302.46" y="-216.83" font-family="Times,serif" font-size="14.00">memberOfMedia</text>
</g>
<!-- MessageType&#45;&#45;MessageFunction -->
<g id="edge10" class="edge">
<title>MessageType&#45;&#45;MessageFunction</title>
<path fill="none" stroke="black" d="M1345.74,-125.62C1369.46,-101.87 1411.76,-59.52 1435.61,-35.64"/>
<text text-anchor="middle" x="1366.18" y="-84.43" font-family="Times,serif" font-size="14.00">Function</text>
</g>
<!-- PaymentMessage&#45;&#45;Interface -->
<g id="edge50" class="edge">
<title>PaymentMessage&#45;&#45;Interface</title>
<path fill="none" stroke="black" d="M1152.08,-282.35C1166.52,-306.39 1191.94,-348.69 1206.26,-372.51"/>
<text text-anchor="middle" x="1226.17" y="-331.23" font-family="Times,serif" font-size="14.00">TransmittedOver</text>
</g>
<!-- PaymentMessage&#45;&#45;MessageType -->
<g id="edge11" class="edge">
<title>PaymentMessage&#45;&#45;MessageType</title>
<path fill="none" stroke="black" d="M1167.27,-247.46C1203.22,-224.15 1267.67,-182.37 1303.18,-159.34"/>
<text text-anchor="middle" x="1212.22" y="-207.2" font-family="Times,serif" font-size="14.00">hasType</text>
</g>
<!-- ClearingSystem -->
<g id="node14" class="node">
<title>ClearingSystem</title>
<ellipse fill="none" stroke="black" cx="67.59" cy="-93.84" rx="67.69" ry="18"/>
<text text-anchor="middle" x="67.59" y="-90.14" font-family="Times,serif" font-size="14.00">ClearingSystem</text>
</g>
<!-- ClearingSystem&#45;&#45;FinancialInstitution -->
<g id="edge12" class="edge">
<title>ClearingSystem&#45;&#45;FinancialInstitution</title>
<path fill="none" stroke="black" d="M89.67,-110.88C112.33,-124.51 148.12,-143.18 176.41,-156.32"/>
<text text-anchor="middle" x="87.54" y="-137.4" font-family="Times,serif" font-size="14.00">IsSubClassOf(6)</text>
</g>
<!-- ClearingSystem&#45;&#45;FinancialInstitution -->
<g id="edge16" class="edge">
<title>ClearingSystem&#45;&#45;FinancialInstitution</title>
<path fill="none" stroke="black" d="M108.64,-108.16C137,-121.23 173.63,-140.28 196.88,-154.21"/>
<text text-anchor="middle" x="107.26" y="-119.99" font-family="Times,serif" font-size="14.00">IsSubClassOf(6)</text>
</g>
<!-- Organisation -->
<g id="node16" class="node">
<title>Organisation</title>
<ellipse fill="none" stroke="black" cx="283.69" cy="-346.42" rx="55.79" ry="18"/>
<text text-anchor="middle" x="283.69" y="-342.72" font-family="Times,serif" font-size="14.00">Organisation</text>
</g>
<!-- FinancialInstitution&#45;&#45;Organisation -->
<g id="edge13" class="edge">
<title>FinancialInstitution&#45;&#45;Organisation</title>
<path fill="none" stroke="black" d="M221.74,-189.79C230.56,-223.51 256.77,-295.16 272.43,-328.59"/>
<text text-anchor="middle" x="201.58" y="-262.99" font-family="Times,serif" font-size="14.00">IsSubClassOf(3)</text>
</g>
<!-- FinancialInstitution&#45;&#45;Organisation -->
<g id="edge17" class="edge">
<title>FinancialInstitution&#45;&#45;Organisation</title>
<path fill="none" stroke="black" d="M230.78,-189.44C246.46,-222.93 272.72,-294.72 281.5,-328.36"/>
<text text-anchor="middle" x="210.64" y="-247.7" font-family="Times,serif" font-size="14.00">IsSubClassOf(3)</text>
</g>
<!-- Organisation&#45;&#45;Party -->
<g id="edge14" class="edge">
<title>Organisation&#45;&#45;Party</title>
<path fill="none" stroke="black" d="M302.87,-363.47C337.73,-388.49 411.26,-433.79 449.81,-454.03"/>
<text text-anchor="middle" x="330.84" y="-412.55" font-family="Times,serif" font-size="14.00">IsSubClassOf(2)</text>
</g>
<!-- Organisation&#45;&#45;Party -->
<g id="edge18" class="edge">
<title>Organisation&#45;&#45;Party</title>
<path fill="none" stroke="black" d="M317.03,-360.94C358.13,-383.38 426.3,-425.7 457.75,-448.62"/>
<text text-anchor="middle" x="432.89" y="-408.58" font-family="Times,serif" font-size="14.00">IsSubClassOf(2)</text>
</g>
<!-- PaymentRole -->
<g id="node18" class="node">
<title>PaymentRole</title>
<ellipse fill="none" stroke="black" cx="620.25" cy="-735.53" rx="58.49" ry="18"/>
<text text-anchor="middle" x="620.25" y="-731.83" font-family="Times,serif" font-size="14.00">PaymentRole</text>
</g>
<!-- Person -->
<g id="node19" class="node">
<title>Person</title>
<ellipse fill="none" stroke="black" cx="336.13" cy="-589.56" rx="34.39" ry="18"/>
<text text-anchor="middle" x="336.13" y="-585.86" font-family="Times,serif" font-size="14.00">Person</text>
</g>
<!-- Person&#45;&#45;Party -->
<g id="edge15" class="edge">
<title>Person&#45;&#45;Party</title>
<path fill="none" stroke="black" d="M358.63,-575.68C388.36,-552.31 439.42,-505.75 462.61,-480.63"/>
<text text-anchor="middle" x="365.12" y="-531.95" font-family="Times,serif" font-size="14.00">IsSubClassOf(1)</text>
</g>
<!-- Person&#45;&#45;Party -->
<g id="edge19" class="edge">
<title>Person&#45;&#45;Party</title>
<path fill="none" stroke="black" d="M348.25,-572.62C371.86,-547.1 423.77,-499.82 453.22,-476.86"/>
<text text-anchor="middle" x="355.23" y="-513.54" font-family="Times,serif" font-size="14.00">IsSubClassOf(1)</text>
</g>
<!-- Charges -->
<g id="node20" class="node">
<title>Charges</title>
<ellipse fill="none" stroke="black" cx="1050.87" cy="-610.38" rx="39.79" ry="18"/>
<text text-anchor="middle" x="1050.87" y="-606.68" font-family="Times,serif" font-size="14.00">Charges</text>
</g>
<!-- CurrencyExchange -->
<g id="node21" class="node">
<title>CurrencyExchange</title>
<ellipse fill="none" stroke="black" cx="1084.23" cy="-494.91" rx="77.99" ry="18"/>
<text text-anchor="middle" x="1084.23" y="-491.21" font-family="Times,serif" font-size="14.00">CurrencyExchange</text>
</g>
<!-- Obligation -->
<g id="node22" class="node">
<title>Obligation</title>
<ellipse fill="none" stroke="black" cx="851.72" cy="-539.47" rx="48.19" ry="18"/>
<text text-anchor="middle" x="851.72" y="-535.77" font-family="Times,serif" font-size="14.00">Obligation</text>
</g>
<!-- Payment&#45;&#45;CashEntry -->
<g id="edge40" class="edge">
<title>Payment&#45;&#45;CashEntry</title>
<path fill="none" stroke="black" d="M919.74,-397.48C894.48,-359.4 834.8,-269.45 809.48,-231.28"/>
<text text-anchor="middle" x="904.11" y="-318.18" font-family="Times,serif" font-size="14.00">bookedEntries</text>
</g>
<!-- Payment&#45;&#45;DirectDebitMandate -->
<g id="edge44" class="edge">
<title>Payment&#45;&#45;DirectDebitMandate</title>
<path fill="none" stroke="black" d="M889.77,-411.49C851.4,-408.26 793.43,-403.37 746.51,-399.42"/>
<text text-anchor="middle" x="818.14" y="-394.25" font-family="Times,serif" font-size="14.00">referencesMandate</text>
</g>
<!-- Payment&#45;&#45;StandingOrder -->
<g id="edge45" class="edge">
<title>Payment&#45;&#45;StandingOrder</title>
<path fill="none" stroke="black" d="M907.33,-400.04C877.78,-381.65 827.78,-350.53 797.21,-331.51"/>
<text text-anchor="middle" x="815.77" y="-369.57" font-family="Times,serif" font-size="14.00">referencesSO</text>
</g>
<!-- Payment&#45;&#45;Interface -->
<g id="edge41" class="edge">
<title>Payment&#45;&#45;Interface</title>
<path fill="none" stroke="black" d="M971.29,-421.18C1028.41,-421.57 1132.3,-412.3 1184.73,-401.93"/>
<text text-anchor="middle" x="1031.51" y="-415.35" font-family="Times,serif" font-size="14.00">inboundInterface</text>
</g>
<!-- Payment&#45;&#45;Interface -->
<g id="edge42" class="edge">
<title>Payment&#45;&#45;Interface</title>
<path fill="none" stroke="black" d="M963.32,-403.18C1015.69,-392.8 1119.62,-383.52 1176.8,-383.9"/>
<text text-anchor="middle" x="1021.56" y="-397.34" font-family="Times,serif" font-size="14.00">initiatingInterface</text>
</g>
<!-- Payment&#45;&#45;Interface -->
<g id="edge43" class="edge">
<title>Payment&#45;&#45;Interface</title>
<path fill="none" stroke="black" d="M972.87,-411.37C1026.99,-406.65 1121.12,-398.44 1175.26,-393.72"/>
<text text-anchor="middle" x="1124.07" y="-391.34" font-family="Times,serif" font-size="14.00">outboundInterface</text>
</g>
<!-- Payment&#45;&#45;PaymentMessage -->
<g id="edge38" class="edge">
<title>Payment&#45;&#45;PaymentMessage</title>
<path fill="none" stroke="black" d="M958.48,-401.09C1002.24,-373.48 1087.01,-312.48 1123.7,-282.05"/>
<text text-anchor="middle" x="1008.09" y="-345.37" font-family="Times,serif" font-size="14.00">InstructedIn</text>
</g>
<!-- Payment&#45;&#45;PaymentMessage -->
<g id="edge39" class="edge">
<title>Payment&#45;&#45;PaymentMessage</title>
<path fill="none" stroke="black" d="M947.62,-398.33C982.5,-369.2 1064.66,-309.91 1109.98,-280.87"/>
<text text-anchor="middle" x="1065.3" y="-343.4" font-family="Times,serif" font-size="14.00">ReferencedIn</text>
</g>
<!-- Payment&#45;&#45;Charges -->
<g id="edge21" class="edge">
<title>Payment&#45;&#45;Charges</title>
<path fill="none" stroke="black" d="M937.8,-433.02C956.51,-470.67 1009.14,-556.9 1035.63,-593.52"/>
<text text-anchor="middle" x="966.71" y="-517.07" font-family="Times,serif" font-size="14.00">applied</text>
</g>
<!-- Payment&#45;&#45;Charges -->
<g id="edge28" class="edge">
<title>Payment&#45;&#45;Charges</title>
<path fill="none" stroke="black" d="M946.63,-431.89C973.16,-468.57 1025.87,-554.96 1044.51,-592.51"/>
<text text-anchor="middle" x="975.57" y="-501" font-family="Times,serif" font-size="14.00">applied</text>
</g>
<!-- Payment&#45;&#45;CurrencyExchange -->
<g id="edge22" class="edge">
<title>Payment&#45;&#45;CurrencyExchange</title>
<path fill="none" stroke="black" d="M951.3,-430.98C974.23,-445.22 1012.42,-465.59 1042.01,-479.6"/>
<text text-anchor="middle" x="967.66" y="-459.09" font-family="Times,serif" font-size="14.00">appliedFX</text>
</g>
<!-- Payment&#45;&#45;CurrencyExchange -->
<g id="edge29" class="edge">
<title>Payment&#45;&#45;CurrencyExchange</title>
<path fill="none" stroke="black" d="M964.87,-426.25C994.28,-439.68 1036.21,-461.75 1061.77,-477.38"/>
<text text-anchor="middle" x="984.32" y="-440.61" font-family="Times,serif" font-size="14.00">appliedFX</text>
</g>
<!-- Payment&#45;&#45;Obligation -->
<g id="edge23" class="edge">
<title>Payment&#45;&#45;Obligation</title>
<path fill="none" stroke="black" d="M914.65,-431.71C896.81,-455.18 869.9,-497.51 857.67,-521.59"/>
<text text-anchor="middle" x="829.16" y="-465.45" font-family="Times,serif" font-size="14.00">associatedObligation</text>
</g>
<!-- Payment&#45;&#45;Obligation -->
<g id="edge30" class="edge">
<title>Payment&#45;&#45;Obligation</title>
<path fill="none" stroke="black" d="M925.35,-433.01C913.15,-456.99 886.51,-498.9 868.7,-522.4"/>
<text text-anchor="middle" x="840.02" y="-481.5" font-family="Times,serif" font-size="14.00">associatedObligation</text>
</g>
<!-- PaymentIdentification -->
<g id="node24" class="node">
<title>PaymentIdentification</title>
<ellipse fill="none" stroke="black" cx="926.61" cy="-640.02" rx="89.08" ry="18"/>
<text text-anchor="middle" x="926.61" y="-636.32" font-family="Times,serif" font-size="14.00">PaymentIdentification</text>
</g>
<!-- Payment&#45;&#45;PaymentIdentification -->
<g id="edge25" class="edge">
<title>Payment&#45;&#45;PaymentIdentification</title>
<path fill="none" stroke="black" d="M927.1,-432.94C922.38,-475 920.17,-579.51 923.1,-621.81"/>
<text text-anchor="middle" x="953.1" y="-531.18" font-family="Times,serif" font-size="14.00">references</text>
</g>
<!-- Payment&#45;&#45;PaymentIdentification -->
<g id="edge32" class="edge">
<title>Payment&#45;&#45;PaymentIdentification</title>
<path fill="none" stroke="black" d="M934.85,-433.11C937.79,-475.32 935.59,-579.84 930.87,-621.98"/>
<text text-anchor="middle" x="918.86" y="-516.34" font-family="Times,serif" font-size="14.00">references</text>
</g>
<!-- Payment&#45;&#45;PaymentInstructionGroup -->
<g id="edge20" class="edge">
<title>Payment&#45;&#45;PaymentInstructionGroup</title>
<path fill="none" stroke="black" d="M957.47,-400.64C979.09,-384.94 1008.88,-360.06 1026.24,-343.04"/>
<text text-anchor="middle" x="956.35" y="-375.64" font-family="Times,serif" font-size="14.00">PartOfGroup</text>
</g>
<!-- Payment&#45;&#45;PaymentInstructionGroup -->
<g id="edge27" class="edge">
<title>Payment&#45;&#45;PaymentInstructionGroup</title>
<path fill="none" stroke="black" d="M944.69,-397.45C960.9,-381.46 988.55,-358.19 1009.97,-342.27"/>
<text text-anchor="middle" x="941.83" y="-358.66" font-family="Times,serif" font-size="14.00">PartOfGroup</text>
</g>
<!-- PaymentPartyRole -->
<g id="node26" class="node">
<title>PaymentPartyRole</title>
<ellipse fill="none" stroke="black" cx="680.01" cy="-555.63" rx="77.19" ry="18"/>
<text text-anchor="middle" x="680.01" y="-551.93" font-family="Times,serif" font-size="14.00">PaymentPartyRole</text>
</g>
<!-- Payment&#45;&#45;PaymentPartyRole -->
<g id="edge24" class="edge">
<title>Payment&#45;&#45;PaymentPartyRole</title>
<path fill="none" stroke="black" d="M900.08,-427.33C848.56,-452.61 747.21,-509.44 702.3,-538.35"/>
<text text-anchor="middle" x="764.69" y="-486.64" font-family="Times,serif" font-size="14.00">hasPartyRole</text>
</g>
<!-- Payment&#45;&#45;PaymentPartyRole -->
<g id="edge31" class="edge">
<title>Payment&#45;&#45;PaymentPartyRole</title>
<path fill="none" stroke="black" d="M911.03,-431C869.03,-458.28 772.26,-512.75 718.22,-539.86"/>
<text text-anchor="middle" x="851.12" y="-489.23" font-family="Times,serif" font-size="14.00">hasPartyRole</text>
</g>
<!-- PaymentInstructionGroup&#45;&#45;PaymentMessage -->
<g id="edge46" class="edge">
<title>PaymentInstructionGroup&#45;&#45;PaymentMessage</title>
<path fill="none" stroke="black" d="M1069.13,-307.56C1083.01,-299.23 1099.57,-289.31 1113.32,-281.07"/>
<text text-anchor="middle" x="1070.72" y="-283.11" font-family="Times,serif" font-size="14.00">InstructedIn(2)</text>
</g>
<!-- PaymentInstructionGroup&#45;&#45;PaymentInstructionGroup -->
<g id="edge26" class="edge">
<title>PaymentInstructionGroup&#45;&#45;PaymentInstructionGroup</title>
<path fill="none" stroke="black" d="M1141.85,-327.78C1153.38,-327.24 1160.85,-326.29 1160.85,-324.92 1160.85,-323.55 1153.38,-322.6 1141.85,-322.06"/>
<text text-anchor="middle" x="1194.35" y="-321.22" font-family="Times,serif" font-size="14.00">parentBlock</text>
</g>
<!-- PaymentInstructionGroup&#45;&#45;PaymentInstructionGroup -->
<g id="edge33" class="edge">
<title>PaymentInstructionGroup&#45;&#45;PaymentInstructionGroup</title>
<path fill="none" stroke="black" d="M1135.7,-331.56C1183.09,-332.2 1227.85,-329.98 1227.85,-324.92 1227.85,-319.86 1183.09,-317.64 1135.7,-318.27"/>
<text text-anchor="middle" x="1261.35" y="-321.22" font-family="Times,serif" font-size="14.00">parentBlock</text>
</g>
<!-- PaymentPartyRole&#45;&#45;Party -->
<g id="edge52" class="edge">
<title>PaymentPartyRole&#45;&#45;Party</title>
<path fill="none" stroke="black" d="M644.21,-539.66C602.36,-520.98 534.24,-490.58 498.36,-474.56"/>
<text text-anchor="middle" x="528.79" y="-510.91" font-family="Times,serif" font-size="14.00">associatedParty</text>
</g>
<!-- PaymentPartyRole&#45;&#45;PaymentRole -->
<g id="edge51" class="edge">
<title>PaymentPartyRole&#45;&#45;PaymentRole</title>
<path fill="none" stroke="black" d="M673.95,-573.87C662.47,-608.44 637.66,-683.11 626.23,-717.51"/>
<text text-anchor="middle" x="613.59" y="-649.49" font-family="Times,serif" font-size="14.00">assignedRole</text>
</g>
</g>
</svg>
